<svg width="42" height="43" viewBox="0 0 42 43" fill="none" xmlns="http://www.w3.org/2000/svg">
<path d="M35.2856 28.8974C35.1111 28.8383 34.9267 28.8144 34.7429 28.827C34.5591 28.8396 34.3796 28.8885 34.2148 28.9709C34.05 29.0533 33.9032 29.1676 33.7829 29.307C33.6625 29.4465 33.571 29.6085 33.5136 29.7835C33.4562 29.9586 33.4341 30.1433 33.4485 30.3269C33.4629 30.5106 33.5136 30.6896 33.5976 30.8535C33.6817 31.0175 33.7973 31.1632 33.938 31.2821C34.0787 31.4011 34.2415 31.491 34.4171 31.5467C37.6061 32.5922 39.0335 33.8406 39.0335 34.6125C39.0335 36.5552 31.8052 39.4917 20.9108 39.4917C10.0164 39.4917 2.78811 36.5552 2.78811 34.6125C2.78811 33.8406 4.21552 32.5922 7.40454 31.5467C7.58016 31.491 7.743 31.4011 7.88366 31.2821C8.02431 31.1632 8.13999 31.0175 8.22401 30.8535C8.30802 30.6896 8.3587 30.5106 8.37313 30.3269C8.38755 30.1433 8.36543 29.9586 8.30804 29.7835C8.25065 29.6085 8.15913 29.4465 8.03878 29.307C7.91842 29.1676 7.77161 29.0533 7.60684 28.9709C7.44206 28.8885 7.26259 28.8396 7.0788 28.827C6.895 28.8144 6.71053 28.8383 6.53605 28.8974C1.13403 30.6686 0 32.9829 0 34.6125C0 39.6455 10.5194 42.2798 20.9108 42.2798C31.3022 42.2798 41.8216 39.6455 41.8216 34.6125C41.8216 32.9829 40.6876 30.6686 35.2856 28.8974Z" fill="#E3010F"/>
<path d="M20.0407 36.3985C20.2879 36.5959 20.5949 36.7034 20.9113 36.7034C21.2276 36.7034 21.5346 36.5959 21.7818 36.3985C22.2917 35.99 34.2541 26.2766 34.2541 13.8009C34.2541 10.2621 32.8484 6.86833 30.3461 4.36605C27.8438 1.86377 24.45 0.458008 20.9112 0.458008C17.3725 0.458008 13.9787 1.86377 11.4764 4.36605C8.97412 6.86833 7.56836 10.2621 7.56836 13.8009C7.56839 26.2766 19.5308 35.9901 20.0407 36.3985ZM16.1316 13.8009C16.1317 12.8556 16.412 11.9315 16.9373 11.1455C17.4625 10.3596 18.209 9.74697 19.0823 9.38525C19.9557 9.02352 20.9167 8.9289 21.8439 9.11335C22.771 9.2978 23.6226 9.75303 24.2911 10.4215C24.9595 11.0899 25.4147 11.9416 25.5991 12.8687C25.7835 13.7959 25.6888 14.7569 25.3271 15.6303C24.9653 16.5036 24.3527 17.2501 23.5667 17.7753C22.7807 18.3004 21.8566 18.5808 20.9113 18.5808C19.6436 18.5807 18.4279 18.0771 17.5315 17.1807C16.6352 16.2843 16.1316 15.0686 16.1316 13.801V13.8009Z" fill="#E3010F"/>
</svg>
