<svg width="53" height="53" viewBox="0 0 53 53" fill="none" xmlns="http://www.w3.org/2000/svg">
<rect width="53" height="53" rx="26.5" transform="matrix(-1 0 0 1 53 0)" fill="white"/>
<path d="M31.2324 14.3471C31.4806 14.1186 31.809 13.9943 32.1482 14.0002C32.4875 14.0061 32.8112 14.1418 33.0511 14.3787C33.291 14.6157 33.4285 14.9353 33.4345 15.2703C33.4405 15.6053 33.3145 15.9295 33.0832 16.1746L22.6592 26.4677L33.0832 36.7608C33.2119 36.8792 33.3151 37.022 33.3866 37.1806C33.4582 37.3392 33.4967 37.5105 33.4998 37.6841C33.5029 37.8577 33.4706 38.0302 33.4047 38.1912C33.3388 38.3522 33.2408 38.4985 33.1164 38.6213C32.9921 38.7441 32.844 38.8409 32.6809 38.9059C32.5178 38.9709 32.3432 39.0029 32.1674 38.9998C31.9915 38.9967 31.8181 38.9587 31.6575 38.8881C31.4968 38.8174 31.3523 38.7155 31.2324 38.5884L19.883 27.3815C19.6377 27.1391 19.5 26.8104 19.5 26.4677C19.5 26.1251 19.6377 25.7964 19.883 25.554L31.2324 14.3471Z" fill="#E3010F"/>
</svg>
