<svg width="53" height="53" viewBox="0 0 53 53" fill="none" xmlns="http://www.w3.org/2000/svg">
<rect width="53" height="53" rx="26.5" fill="white"/>
<path d="M21.7676 14.3471C21.5194 14.1186 21.191 13.9943 20.8518 14.0002C20.5125 14.0061 20.1888 14.1418 19.9489 14.3787C19.709 14.6157 19.5715 14.9353 19.5655 15.2703C19.5595 15.6053 19.6855 15.9295 19.9168 16.1746L30.3408 26.4677L19.9168 36.7608C19.7881 36.8792 19.6849 37.022 19.6134 37.1806C19.5418 37.3392 19.5033 37.5105 19.5002 37.6841C19.4971 37.8577 19.5294 38.0302 19.5953 38.1912C19.6612 38.3522 19.7592 38.4985 19.8836 38.6213C20.0079 38.7441 20.156 38.8409 20.3191 38.9059C20.4822 38.9709 20.6568 39.0029 20.8326 38.9998C21.0085 38.9967 21.1819 38.9587 21.3425 38.8881C21.5032 38.8174 21.6477 38.7155 21.7676 38.5884L33.117 27.3815C33.3623 27.1391 33.5 26.8104 33.5 26.4677C33.5 26.1251 33.3623 25.7964 33.117 25.554L21.7676 14.3471Z" fill="#E3010F"/>
</svg>
