<svg width="26" height="26" viewBox="0 0 26 26" fill="none" xmlns="http://www.w3.org/2000/svg">
<path d="M12.0002 17.9999C11.8686 18.0007 11.7381 17.9755 11.6163 17.9257C11.4944 17.8759 11.3836 17.8026 11.2902 17.7099L7.29018 13.7099C7.10188 13.5216 6.99609 13.2662 6.99609 12.9999C6.99609 12.7336 7.10188 12.4782 7.29018 12.2899C7.47849 12.1016 7.73388 11.9958 8.00019 11.9958C8.26649 11.9958 8.52188 12.1016 8.71019 12.2899L12.0002 15.5899L18.2902 9.28994C18.4785 9.10164 18.7339 8.99585 19.0002 8.99585C19.2665 8.99585 19.5219 9.10164 19.7102 9.28994C19.8985 9.47824 20.0043 9.73364 20.0043 9.99994C20.0043 10.2662 19.8985 10.5216 19.7102 10.7099L12.7102 17.7099C12.6167 17.8026 12.5059 17.8759 12.3841 17.9257C12.2623 17.9755 12.1318 18.0007 12.0002 17.9999Z" fill="#E3010F"/>
<path d="M13 26C10.4288 26 7.91543 25.2376 5.77759 23.8091C3.63975 22.3807 1.97351 20.3503 0.989572 17.9749C0.0056327 15.5995 -0.251811 12.9856 0.249797 10.4638C0.751405 7.94208 1.98953 5.6257 3.80762 3.80762C5.6257 1.98953 7.94208 0.751405 10.4638 0.249797C12.9856 -0.251811 15.5995 0.0056327 17.9749 0.989572C20.3503 1.97351 22.3807 3.63975 23.8091 5.77759C25.2376 7.91543 26 10.4288 26 13C26 16.4478 24.6304 19.7544 22.1924 22.1924C19.7544 24.6304 16.4478 26 13 26ZM13 2.00001C10.8244 2.00001 8.69767 2.64514 6.88873 3.85384C5.07979 5.06254 3.66989 6.7805 2.83733 8.79049C2.00477 10.8005 1.78693 13.0122 2.21137 15.146C2.63581 17.2798 3.68345 19.2398 5.22183 20.7782C6.76021 22.3166 8.72022 23.3642 10.854 23.7886C12.9878 24.2131 15.1995 23.9952 17.2095 23.1627C19.2195 22.3301 20.9375 20.9202 22.1462 19.1113C23.3549 17.3023 24 15.1756 24 13C24 10.0826 22.8411 7.28473 20.7782 5.22183C18.7153 3.15893 15.9174 2.00001 13 2.00001Z" fill="#E3010F"/>
</svg>
