<svg width="60" height="60" viewBox="0 0 60 60" fill="none" xmlns="http://www.w3.org/2000/svg">
<path d="M23.8576 12.8327L24.8238 6H35.1762L36.1424 12.8327C38.2767 13.618 40.2518 14.775 41.9743 16.2491L48.3238 13.721L53.5 22.6036L48.1167 26.4982C48.5522 28.7554 48.5522 31.0738 48.1167 33.331L53.5 37.4989L48.3238 46.3815L41.9743 43.8534C41.1256 44.5867 40.2001 45.228 39.2137 45.7665C38.2417 46.3375 37.2124 46.8069 36.1424 47.1673L35.1762 54H24.8238L23.8576 47.1673C21.7233 46.382 19.7482 45.225 18.0257 43.7509L11.6762 46.279L6.5 37.3964L11.8833 33.331C11.4478 31.0738 11.4478 28.7554 11.8833 26.4982L6.5 22.3986L11.6762 13.516L18.0257 16.0441C18.8744 15.3108 19.7999 14.6695 20.7863 14.131C21.7626 13.5954 22.7917 13.1604 23.8576 12.8327V12.8327Z" stroke="#E3010F" stroke-width="3" stroke-linecap="round" stroke-linejoin="round"/>
<path d="M30 39C34.6944 39 38.5 34.9706 38.5 30C38.5 25.0294 34.6944 21 30 21C25.3056 21 21.5 25.0294 21.5 30C21.5 34.9706 25.3056 39 30 39Z" stroke="#E3010F" stroke-width="3" stroke-linecap="round" stroke-linejoin="round"/>
</svg>
