<svg width="61" height="60" viewBox="0 0 61 60" fill="none" xmlns="http://www.w3.org/2000/svg">
<path d="M43.0918 38.9768C45.7245 38.9768 47.5654 37.2151 47.5654 34.6826C47.5654 32.1501 45.7245 30.4434 43.0918 30.4434H38.0391C37.8342 30.4434 37.668 30.6026 37.668 30.7989V36.9214H36.0596C35.8547 36.9214 35.6885 37.0806 35.6885 37.277V38.6213C35.6885 38.8176 35.8547 38.9768 36.0596 38.9768H37.668V39.925H36.0596C35.8547 39.925 35.6885 40.0842 35.6885 40.2805V41.4657C35.6885 41.6621 35.8547 41.8213 36.0596 41.8213H37.668V43.3621C37.668 43.5584 37.8342 43.7176 38.0391 43.7176H39.8504C40.0553 43.7176 40.2215 43.5584 40.2215 43.3621V41.8213H45.2148C45.4198 41.8213 45.5859 41.6621 45.5859 41.4657V40.2805C45.5859 40.0842 45.4198 39.925 45.2148 39.925H40.2215V38.9768H43.0918ZM40.2215 32.4804H42.6563C44.1013 32.4804 44.9723 33.3429 44.9723 34.6826C44.9723 36.0406 44.1013 36.9214 42.6167 36.9214H40.2215V32.4804Z" fill="#E3010F"/>
<path d="M41.389 22.155H35.7802V16.4588C35.7802 16.1649 35.6643 15.8831 35.4581 15.6752C35.2518 15.4674 34.9721 15.3507 34.6804 15.3507H33.3167V9.43289C33.3167 9.13898 33.2008 8.8571 32.9946 8.64927C32.7883 8.44145 32.5086 8.32469 32.2169 8.32469H5.82243C5.53075 8.32469 5.25102 8.44145 5.04477 8.64927C4.83852 8.8571 4.72266 9.13898 4.72266 9.43289V16.2372C4.72266 16.3827 4.7511 16.5268 4.80637 16.6613C4.86164 16.7957 4.94265 16.9179 5.04477 17.0208C5.14689 17.1237 5.26813 17.2054 5.40156 17.261C5.53499 17.3167 5.678 17.3454 5.82243 17.3454H7.27412V23.2632C7.27412 23.5571 7.38999 23.839 7.59624 24.0468C7.80249 24.2546 8.08222 24.3714 8.3739 24.3714H9.47367V28.9815H6.17435C5.88268 28.9815 5.60295 29.0982 5.3967 29.306C5.19045 29.5139 5.07458 29.7957 5.07458 30.0896V50.4361C5.07458 50.73 5.19045 51.0119 5.3967 51.2197C5.60295 51.4276 5.88268 51.5443 6.17435 51.5443H32.5689C32.8605 51.5443 33.1403 51.4276 33.3465 51.2197C33.5528 51.0119 33.6686 50.73 33.6686 50.4361V49.3058C35.5898 50.5589 37.7757 51.341 40.0509 51.5894C42.3262 51.8378 44.6276 51.5456 46.7705 50.7362C48.9135 49.9268 50.8385 48.6227 52.3911 46.9284C53.9437 45.2342 55.0808 43.197 55.7112 40.9801C56.3415 38.7632 56.4477 36.4283 56.0211 34.1626C55.5945 31.8969 54.647 29.7635 53.2546 27.9333C51.8622 26.1031 50.0636 24.6271 48.0031 23.6237C45.9425 22.6202 43.6773 22.1172 41.389 22.155ZM6.9222 10.5411H31.1172V15.129H6.9222V10.5411ZM9.47367 17.567H33.6686V22.155H9.47367V17.567ZM11.6732 24.3714H33.6686C31.8099 25.5361 30.2321 27.1033 29.0496 28.9593H11.6732V24.3714ZM27.07 42.5901H7.27412V38.0022H26.7181C26.8292 39.5801 27.1931 41.1294 27.7959 42.5901H27.07ZM7.27412 31.1757H27.8838C27.2736 32.635 26.9022 34.1845 26.7841 35.7636H7.27412V31.1757ZM31.4691 49.3944H7.27412V44.8065H29.0276C29.6897 45.8554 30.4804 46.8161 31.3811 47.6656L31.4691 49.3944ZM41.477 49.3944C39.2983 49.3966 37.1575 48.8206 35.27 47.7243C33.3824 46.6281 31.8146 45.0503 30.7243 43.1496C29.6341 41.2489 29.0598 39.0924 29.0592 36.8971C29.0587 34.7017 29.6319 32.545 30.7212 30.6437C30.7648 30.5813 30.8016 30.5145 30.8312 30.4443C31.9493 28.5737 33.5342 27.0309 35.428 25.9696C37.3219 24.9082 39.4586 24.3652 41.6255 24.3947C43.7923 24.4242 45.9137 25.0251 47.7784 26.1377C49.6431 27.2503 51.186 28.8356 52.2536 30.7359C53.3211 32.6362 53.876 34.7852 53.8631 36.9688C53.8501 39.1524 53.2697 41.2945 52.1797 43.1818C51.0896 45.0691 49.528 46.6357 47.6502 47.7257C45.7724 48.8157 43.6441 49.391 41.477 49.3944Z" fill="#E3010F"/>
</svg>
