<svg width="61" height="60" viewBox="0 0 61 60" fill="none" xmlns="http://www.w3.org/2000/svg">
<path d="M30.5002 37.2729C29.9503 37.2729 29.5039 37.7193 29.5039 38.2692C29.5039 38.8192 29.9503 39.2656 30.5002 39.2656C31.0502 39.2656 31.4966 38.8192 31.4966 38.2692C31.4966 37.7193 31.0502 37.2729 30.5002 37.2729Z" fill="#E3010F"/>
<path d="M43.4522 47.5353H43.3511L42.5534 40.0914C42.2236 37.1206 40.8153 34.3869 38.5884 32.3944C37.6075 31.5157 36.5009 30.8113 35.314 30.2979C39.1588 28.6303 42.0036 25.0229 42.5374 20.6359C42.538 20.6315 42.5386 20.6268 42.5392 20.6222C42.5398 20.6173 42.5406 20.6125 42.5411 20.6076C42.5458 20.5719 42.5503 20.5353 42.5545 20.4955L43.3576 12.4647H43.4522C44.5163 12.4647 45.5169 12.05 46.2699 11.2971C47.0228 10.5443 47.4375 9.54358 47.4375 8.4794C47.4375 6.28191 45.6497 4.49411 43.4522 4.49411H17.5478C16.4837 4.49411 15.4831 4.90878 14.7301 5.6617C13.9772 6.41452 13.5625 7.41523 13.5625 8.4794C13.5625 10.6769 15.3503 12.4647 17.5478 12.4647H17.6424L18.446 20.5008C18.4497 20.5358 18.4542 20.5705 18.4587 20.605C18.4593 20.6117 18.4604 20.6184 18.4612 20.6251C18.4617 20.6287 18.4621 20.6324 18.4625 20.6359C18.9961 25.0215 21.8392 28.6281 25.6822 30.2963C21.795 31.9772 18.9409 35.6383 18.4462 40.0951L17.6489 47.5353H17.5478C16.4837 47.5353 15.4831 47.95 14.7301 48.7029C13.9772 49.4557 13.5625 50.4564 13.5625 51.5206C13.5625 53.7181 15.3503 55.5059 17.5478 55.5059H43.4522C44.5163 55.5059 45.5169 55.0912 46.2699 54.3383C47.0228 53.5855 47.4375 52.5848 47.4375 51.5206C47.4375 49.3231 45.6497 47.5353 43.4522 47.5353ZM17.5478 10.4721C16.449 10.4721 15.5551 9.57815 15.5551 8.4794C15.5551 7.94757 15.7626 7.44731 16.1391 7.0707C16.5157 6.69419 17.016 6.48676 17.5478 6.48676H43.4522C44.551 6.48676 45.4449 7.38066 45.4449 8.4794C45.4449 9.01124 45.2374 9.5115 44.8609 9.88811C44.4843 10.2646 43.984 10.4721 43.4522 10.4721H42.4559H18.5441H17.5478ZM19.6451 12.4647H41.3549L40.6502 19.5127H20.3498L19.6451 12.4647ZM20.6411 21.5053H40.3589C39.292 26.021 35.2376 29.3026 30.5 29.3026C25.7624 29.3026 21.708 26.021 20.6411 21.5053ZM20.427 40.3112C20.9605 35.5051 24.7814 31.8044 29.5037 31.3439V34.2842C29.5037 34.8344 29.9497 35.2805 30.5 35.2805C31.0503 35.2805 31.4963 34.8344 31.4963 34.2842V31.3453C33.631 31.5554 35.6479 32.4356 37.2593 33.8789C39.1206 35.5442 40.2974 37.8287 40.5725 40.3074L41.2641 46.7606L31.4665 41.4995C31.3936 41.4603 31.316 41.4304 31.2356 41.4104C30.7501 41.2896 30.2372 41.2937 29.7522 41.4218C29.677 41.4417 29.6045 41.4703 29.5361 41.5069L19.7357 46.7621L20.427 40.3112ZM38.4945 47.5353H22.5107L30.3565 43.3282C30.4549 43.3123 30.5552 43.3112 30.6533 43.3246L38.4945 47.5353ZM44.8609 52.9293C44.4843 53.3058 43.984 53.5132 43.4522 53.5132H17.5478C16.449 53.5132 15.5551 52.6193 15.5551 51.5206C15.5551 50.9887 15.7626 50.4885 16.1391 50.1119C16.5157 49.7354 17.016 49.5279 17.5478 49.5279H18.5367C18.5388 49.5279 18.5409 49.5279 18.5431 49.5279H18.5441H42.4518C42.4529 49.5279 42.454 49.5281 42.455 49.5281C42.456 49.5281 42.4569 49.5279 42.4579 49.5279H43.4522C44.551 49.5279 45.4449 50.4218 45.4449 51.5206C45.4449 52.0524 45.2374 52.5527 44.8609 52.9293Z" fill="#E3010F"/>
</svg>
