<svg width="60" height="60" viewBox="0 0 60 60" fill="none" xmlns="http://www.w3.org/2000/svg">
<path d="M56.8025 27.0092L45.0253 18.4954C44.7015 18.2611 44.2735 18.2283 43.9175 18.4101C43.5616 18.5921 43.3376 18.9581 43.3376 19.3578V25.7891L33.2482 18.4954C32.9244 18.2611 32.4965 18.2283 32.1406 18.4101C31.7845 18.5921 31.5607 18.9581 31.5607 19.3578V25.7891L21.4712 18.4954C21.1473 18.2611 20.7194 18.2283 20.3633 18.4101C20.0075 18.5921 19.7834 18.9581 19.7834 19.3578V26.8073H17.5842L16.1849 6.51448C16.1462 5.95641 15.6824 5.52339 15.1231 5.52339H9.5452C8.98586 5.52339 8.52219 5.95631 8.48345 6.51448L7.08402 26.8074H3.82055C3.23279 26.8074 2.75635 27.2838 2.75635 27.8716V53.4124C2.75635 54.0001 3.23279 54.4766 3.82055 54.4766H56.1792C56.7669 54.4766 57.2434 54.0001 57.2434 53.4124V27.8716C57.2434 27.5299 57.0794 27.2091 56.8025 27.0092ZM9.36439 24.6789H11.6354C12.2229 24.6789 12.6996 24.2023 12.6996 23.6147C12.6996 23.0269 12.2229 22.5505 11.6354 22.5505H9.51115L10.5385 7.6519H14.1298L15.4507 26.8073H9.21764L9.36439 24.6789ZM19.7833 31.0643H13.8569C13.2694 31.0643 12.7927 31.5409 12.7927 32.1285C12.7927 32.7162 13.2694 33.1927 13.8569 33.1927H19.7833V35.321H13.8569C13.2694 35.321 12.7927 35.7976 12.7927 36.3852C12.7927 36.973 13.2694 37.4494 13.8569 37.4494H19.7833V39.5778H16.9393C16.3517 39.5778 15.8751 40.0544 15.8751 40.642C15.8751 41.2298 16.3517 41.7062 16.9393 41.7062H19.7833V43.8345H13.8569C13.2694 43.8345 12.7927 44.311 12.7927 44.8987C12.7927 45.4863 13.2694 45.9629 13.8569 45.9629H19.7833V48.0911H13.8569C13.2694 48.0911 12.7927 48.5676 12.7927 49.1553C12.7927 49.743 13.2694 50.2195 13.8569 50.2195H19.7833V52.3481H4.88475V28.9357H8.07341C8.07469 28.9357 8.07607 28.9359 8.07735 28.9359H16.5907C16.5916 28.936 16.5924 28.936 16.5929 28.9359C16.5944 28.9359 16.5955 28.9357 16.597 28.9357H19.7833V31.0643ZM55.115 52.3481H21.9117V27.8715V21.4402L32.0013 28.7339C32.3252 28.9682 32.7531 29.0012 33.1092 28.8191C33.465 28.6372 33.689 28.2712 33.689 27.8715V21.4402L43.7784 28.7338C44.1022 28.9682 44.5302 29.0009 44.886 28.8191C45.2421 28.6372 45.4659 28.2712 45.4659 27.8715V21.4402L55.115 28.4153V52.3481Z" fill="#E3010F"/>
<path d="M13.8567 41.706H13.8818C14.4696 41.706 14.946 41.2295 14.946 40.6418C14.946 40.0541 14.4696 39.5776 13.8818 39.5776H13.8567C13.2691 39.5776 12.7925 40.0541 12.7925 40.6418C12.7925 41.2294 13.269 41.706 13.8567 41.706Z" fill="#E3010F"/>
<path d="M34.2563 35.3208H29.9993C29.4115 35.3208 28.9351 35.7973 28.9351 36.385V40.6415C28.9351 41.2292 29.4115 41.7057 29.9993 41.7057H34.2563C34.8439 41.7057 35.3205 41.2292 35.3205 40.6415V36.385C35.3205 35.7974 34.8439 35.3208 34.2563 35.3208ZM33.1921 39.5773H31.0635V37.4492H33.1921V39.5773Z" fill="#E3010F"/>
<path d="M41.7056 36.385V40.6415C41.7056 41.2292 42.1822 41.7057 42.7698 41.7057H47.0268C47.6145 41.7057 48.091 41.2292 48.091 40.6415V36.385C48.091 35.7973 47.6145 35.3208 47.0268 35.3208H42.7698C42.1822 35.3208 41.7056 35.7974 41.7056 36.385ZM43.834 37.4492H45.9626V39.5773H43.834V37.4492Z" fill="#E3010F"/>
<path d="M36.9902 48.0913H36.9651C36.3775 48.0913 35.9009 48.5678 35.9009 49.1555C35.9009 49.7432 36.3775 50.2197 36.9651 50.2197H36.9902C37.578 50.2197 38.0544 49.7432 38.0544 49.1555C38.0544 48.5678 37.578 48.0913 36.9902 48.0913Z" fill="#E3010F"/>
<path d="M33.9075 48.0913H29.9993C29.4115 48.0913 28.9351 48.5678 28.9351 49.1555C28.9351 49.7432 29.4115 50.2197 29.9993 50.2197H33.9075C34.4951 50.2197 34.9717 49.7432 34.9717 49.1555C34.9717 48.5678 34.4951 48.0913 33.9075 48.0913Z" fill="#E3010F"/>
</svg>
