<svg width="44" height="33" viewBox="0 0 44 33" fill="none" xmlns="http://www.w3.org/2000/svg">
<path d="M2.00098 11.2591C2.00098 10.9755 2.23195 10.7456 2.51448 10.7456C2.79701 10.7456 3.02798 10.9766 3.02798 11.2591V29.833C3.02798 30.4206 3.26969 30.9556 3.65646 31.3434C4.04424 31.7313 4.57922 31.973 5.16683 31.973H31.6999C32.2875 31.973 32.8224 31.7313 33.2103 31.3434C33.5982 30.9556 33.8387 30.4206 33.8387 29.833V11.2591C33.8387 10.9755 34.0697 10.7456 34.3523 10.7456C34.6348 10.7456 34.8658 10.9766 34.8658 11.2591V29.833C34.8658 30.7043 34.5091 31.497 33.9365 32.0696C33.3628 32.6433 32.5711 32.9998 31.7 32.9998H5.16683C4.29562 32.9998 3.50281 32.6432 2.93024 32.0696C2.35761 31.497 2.00098 30.7042 2.00098 29.833V11.2591Z" fill="#E3010F"/>
<path d="M11.95 13.0993H7.00737V18.7047H11.95V13.0993ZM6.49387 12.0723H12.4506H12.4635C12.7471 12.0723 12.977 12.3032 12.977 12.5858V19.2053V19.2182C12.977 19.5018 12.746 19.7317 12.4635 19.7317H6.50686H6.49397C6.21037 19.7317 5.98047 19.5007 5.98047 19.2182V12.5986V12.5857C5.9794 12.3032 6.21037 12.0723 6.49387 12.0723Z" fill="#E3010F"/>
<path d="M29.8604 13.0993H24.9178V18.7047H29.8604V13.0993ZM24.4032 12.0723H30.36H30.3739C30.6575 12.0723 30.8874 12.3032 30.8874 12.5858V19.2053V19.2182C30.8874 19.5018 30.6565 19.7317 30.3739 19.7317H24.4171H24.4042C24.1207 19.7317 23.8896 19.5007 23.8896 19.2182V12.5986V12.5857C23.8896 12.3032 24.1206 12.0723 24.4032 12.0723Z" fill="#E3010F"/>
<path d="M20.9042 13.0993H15.9616V18.7047H20.9042V13.0993ZM15.4481 12.0723H21.4049H21.4189C21.7025 12.0723 21.9324 12.3032 21.9324 12.5858V19.2053V19.2182C21.9324 19.5018 21.7013 19.7317 21.4189 19.7317H15.462H15.4481C15.1645 19.7317 14.9346 19.5007 14.9346 19.2182V12.5986V12.5857C14.9346 12.3032 15.1655 12.0723 15.4481 12.0723Z" fill="#E3010F"/>
<path d="M11.95 22.3875H7.00737V27.993H11.95V22.3875ZM6.49387 21.3594H12.4506H12.4635C12.7471 21.3594 12.977 21.5904 12.977 21.8729V28.4925V28.5065C12.977 28.7901 12.746 29.02 12.4635 29.02H6.50686H6.49397C6.21037 29.02 5.98047 28.789 5.98047 28.5065V21.8869V21.8741C5.9794 21.5904 6.21037 21.3594 6.49387 21.3594Z" fill="#E3010F"/>
<path d="M29.8604 22.3875H24.9178V27.993H29.8604V22.3875ZM24.4032 21.3594H30.36H30.3739C30.6575 21.3594 30.8874 21.5904 30.8874 21.8729V28.4925V28.5065C30.8874 28.7901 30.6565 29.02 30.3739 29.02H24.4171H24.4042C24.1207 29.02 23.8896 28.789 23.8896 28.5065V21.8869V21.8741C23.8896 21.5904 24.1206 21.3594 24.4032 21.3594Z" fill="#E3010F"/>
<path d="M20.9042 22.3875H15.9616V27.993H20.9042V22.3875ZM15.4481 21.3594H21.4049H21.4189C21.7025 21.3594 21.9324 21.5904 21.9324 21.8729V28.4925V28.5065C21.9324 28.7901 21.7013 29.02 21.4189 29.02H15.462H15.4481C15.1645 29.02 14.9346 28.789 14.9346 28.5065V21.8869V21.8741C14.9346 21.5904 15.1655 21.3594 15.4481 21.3594Z" fill="#E3010F"/>
<path d="M26.6501 6.05343C26.6501 6.33703 26.4191 6.56693 26.1366 6.56693C25.853 6.56693 25.6231 6.33596 25.6231 6.05343V0.513501C25.622 0.230974 25.853 0 26.1355 0C26.4191 0 26.649 0.230974 26.649 0.513501V6.05343H26.6501Z" fill="#E3010F"/>
<path d="M11.2438 6.05343C11.2438 6.33703 11.0128 6.56693 10.7303 6.56693C10.4467 6.56693 10.2168 6.33596 10.2168 6.05343V0.513501C10.2158 0.230974 10.4468 0 10.7292 0C11.0128 0 11.2438 0.230974 11.2438 0.513501V6.05343Z" fill="#E3010F"/>
<path d="M10.7294 2.57084C11.013 2.57084 11.2429 2.80074 11.2429 3.08435C11.2429 3.36795 11.0119 3.59785 10.7294 3.59785H5.16699C4.58367 3.59785 4.04869 3.84064 3.65876 4.22955L3.63405 4.25425C3.26023 4.63887 3.02711 5.1652 3.02711 5.7367V8.09257H33.8379V5.7367C33.8379 5.15124 33.5951 4.61733 33.2073 4.22955L33.1826 4.20377C32.7969 3.82995 32.2706 3.5979 31.698 3.5979H28.1861C27.9026 3.5979 27.6726 3.36693 27.6726 3.0844C27.6726 2.8008 27.9036 2.5709 28.1861 2.5709H31.698C32.5445 2.5709 33.3255 2.91572 33.898 3.47111L33.9335 3.50333C34.5061 4.07698 34.8649 4.86764 34.8649 5.7367V8.59205V8.60602C34.8649 8.88962 34.6339 9.11952 34.3514 9.11952H2.52746H2.5135C2.23097 9.12059 2 8.88962 2 8.60602V5.7367C2 4.88912 2.34482 4.11027 2.90021 3.5377L2.93243 3.50226C3.50715 2.92754 4.29894 2.56982 5.16693 2.56982H10.7294L10.7294 2.57084ZM26.1353 2.57084H12.7823C12.4987 2.57084 12.2688 2.80074 12.2688 3.08435C12.2688 3.36795 12.4998 3.59785 12.7823 3.59785H26.1353C26.4189 3.59785 26.6488 3.36687 26.6488 3.08435C26.6499 2.80074 26.4189 2.57084 26.1353 2.57084Z" fill="#E3010F"/>
</svg>
