<svg width="44" height="33" viewBox="0 0 44 33" fill="none" xmlns="http://www.w3.org/2000/svg">
<path d="M11.5581 15.9822L10.8467 21.1117C10.8205 21.3009 10.8462 21.4935 10.921 21.6692C10.9957 21.8448 11.1168 21.9969 11.2713 22.1091C11.4258 22.2213 11.6078 22.2894 11.798 22.3062C11.9882 22.323 12.1793 22.2878 12.3511 22.2045L16.9946 19.9431L21.6533 22.205C21.8251 22.2882 22.0163 22.3232 22.2065 22.3062C22.3966 22.2893 22.5786 22.221 22.733 22.1087C22.8874 21.9964 23.0084 21.8443 23.0831 21.6686C23.1578 21.493 23.1834 21.3003 23.1572 21.1112L22.4416 15.9964L26.0316 12.2651C26.164 12.1275 26.2565 11.9566 26.2993 11.7705C26.3421 11.5845 26.3336 11.3903 26.2746 11.2087C26.2156 11.0271 26.1084 10.8649 25.9645 10.7395C25.8206 10.6141 25.6453 10.5301 25.4573 10.4965L20.3712 9.59678L17.9315 5.02911C17.8416 4.86066 17.7077 4.71981 17.5439 4.62159C17.3802 4.52338 17.1929 4.4715 17.0019 4.4715C16.811 4.4715 16.6237 4.52338 16.4599 4.62159C16.2962 4.71981 16.1622 4.86066 16.0724 5.02911L13.6447 9.58788L8.54656 10.4965C8.35861 10.5301 8.18331 10.6141 8.03936 10.7395C7.89542 10.8649 7.78824 11.0271 7.72927 11.2087C7.67031 11.3903 7.66176 11.5845 7.70455 11.7705C7.74734 11.9566 7.83986 12.1275 7.97224 12.2651L11.5581 15.9822ZM13.834 10.6425C13.9909 10.6146 14.1394 10.5513 14.2682 10.4575C14.397 10.3637 14.5027 10.2418 14.5774 10.101L16.9862 5.53284L17.4591 5.28108L16.9868 5.53321L19.4265 10.1009C19.5013 10.2418 19.6072 10.3638 19.7362 10.4576C19.8652 10.5514 20.014 10.6146 20.1711 10.6423L25.2598 11.5221L21.6702 15.2534C21.5591 15.3681 21.4756 15.5066 21.4262 15.6585C21.3768 15.8103 21.3628 15.9715 21.3852 16.1296L22.1207 21.2408L17.4625 18.9794C17.3192 18.9092 17.1617 18.8727 17.0021 18.8727C16.8426 18.8727 16.6851 18.9092 16.5418 18.9794L11.9077 21.2586L12.6197 16.128C12.6417 15.9702 12.6275 15.8094 12.5781 15.6578C12.5287 15.5063 12.4454 15.368 12.3345 15.2534L8.73495 11.5509L13.834 10.6425Z" fill="#E3010F"/>
<path d="M30.0178 16.4973C30.2654 15.4804 30.3913 14.4377 30.3927 13.3911C30.3927 9.83952 28.9819 6.43339 26.4705 3.92204C23.9592 1.41068 20.553 -0.000183105 17.0015 -0.000183105C13.4499 -0.000183105 10.0437 1.41068 7.53237 3.92204C5.02102 6.43339 3.61015 9.83952 3.61015 13.3911C3.61154 14.4377 3.73753 15.4803 3.98549 16.497C2.94943 17.413 2.26934 18.6647 2.06473 20.0324C1.86012 21.4 2.14409 22.796 2.86673 23.9751C3.58936 25.1541 4.70443 26.0407 6.01597 26.4791C7.32751 26.9175 8.7516 26.8796 10.038 26.3721V31.6033C10.038 31.6811 10.0549 31.7579 10.0876 31.8285C10.1203 31.899 10.168 31.9616 10.2274 32.0119C10.2867 32.0622 10.3563 32.0989 10.4313 32.1196C10.5062 32.1403 10.5848 32.1444 10.6615 32.1316L17.0015 31.075L23.3414 32.1316C23.3704 32.1364 23.3998 32.1388 23.4293 32.1389C23.5713 32.1389 23.7076 32.0825 23.808 31.982C23.9085 31.8816 23.9649 31.7453 23.9649 31.6033V26.3721C25.2511 26.8785 26.6746 26.9156 27.9854 26.4769C29.2962 26.0382 30.4107 25.1519 31.133 23.9734C31.8554 22.7948 32.1396 21.3995 31.9356 20.0324C31.7317 18.6652 31.0527 17.4136 30.0178 16.4973ZM17.0015 1.07112C20.2678 1.07475 23.3993 2.37391 25.709 4.68357C28.0187 6.99323 29.3178 10.1248 29.3214 13.3911C29.3224 14.4577 29.1826 15.5196 28.9056 16.5496C28.1696 19.3095 26.5007 21.7295 24.1825 23.3983C23.8534 23.6352 23.5126 23.8554 23.1614 24.0581L23.1606 24.0587L23.1567 24.0612C22.8957 24.2156 22.6201 24.3542 22.3854 24.4693C20.7084 25.2863 18.8674 25.711 17.002 25.7111C15.1365 25.7112 13.2955 25.2867 11.6185 24.4698C11.3831 24.3542 11.1074 24.2156 10.8418 24.0581C10.4896 23.8549 10.1479 23.6341 9.81799 23.3966C7.50013 21.727 5.8319 19.3064 5.0968 16.5461C4.81998 15.5173 4.68032 14.4565 4.68146 13.3911C4.68509 10.1248 5.98425 6.99323 8.29391 4.68357C10.6036 2.37391 13.7351 1.07475 17.0015 1.07112ZM7.89537 25.7111C6.96331 25.7112 6.0512 25.4411 5.2695 24.9335C4.4878 24.4259 3.87004 23.7025 3.49103 22.851C3.11202 21.9994 2.98801 21.0563 3.13403 20.1357C3.28004 19.2152 3.68982 18.3567 4.31373 17.6643C4.32482 17.6973 4.33998 17.7286 4.35123 17.7617C4.46473 18.0903 4.58815 18.4152 4.72688 18.733C4.73867 18.7601 4.752 18.7865 4.764 18.8133C4.9047 19.1299 5.05749 19.4404 5.22236 19.7449C5.23693 19.7717 5.25016 19.7994 5.26521 19.8263C5.43325 20.1316 5.61537 20.4292 5.80654 20.7205C5.83606 20.7656 5.86493 20.811 5.89503 20.8557C6.08558 21.1388 6.28672 21.4143 6.49844 21.6821C6.53267 21.7255 6.56738 21.7682 6.6022 21.8111C6.82037 22.0808 7.04749 22.3431 7.28591 22.5954C7.31156 22.6225 7.33835 22.6485 7.36422 22.6757C7.86851 23.2005 8.41476 23.6832 8.99753 24.1192C9.03208 24.1451 9.06577 24.1719 9.10064 24.1974C9.37796 24.4006 9.66365 24.5925 9.95768 24.7732C9.98516 24.7903 10.0104 24.8105 10.038 24.8273V25.2092C9.37196 25.5391 8.6387 25.7109 7.89537 25.7111ZM11.1093 25.529V25.4129L11.1468 25.4317C12.8067 26.2445 14.6188 26.6996 16.4658 26.7675V30.0783L11.1093 30.9708V25.529ZM22.8936 30.9708L17.5371 30.0783V26.7675C19.3843 26.6996 21.1965 26.2443 22.8565 25.4312C22.8685 25.4255 22.8811 25.4192 22.8936 25.413V30.9708ZM26.1075 25.7111C25.3642 25.7108 24.631 25.539 23.9649 25.2089V24.8273C23.9913 24.8112 24.0153 24.792 24.0416 24.7758C24.3352 24.5941 24.6212 24.4019 24.8995 24.1993C24.937 24.1719 24.9731 24.1431 25.0102 24.1153C25.2988 23.8992 25.5804 23.6745 25.8499 23.4363L25.8544 23.4322C26.1251 23.1927 26.3836 22.9405 26.6338 22.6806C26.662 22.6512 26.6911 22.6229 26.7191 22.5933C26.9564 22.3422 27.1823 22.0812 27.3994 21.8129C27.4348 21.7692 27.4701 21.7259 27.5049 21.6818C27.7169 21.4132 27.9184 21.1372 28.1096 20.8536C28.1382 20.8111 28.1657 20.7679 28.1938 20.725C28.3871 20.4304 28.571 20.1305 28.7407 19.8215C28.7522 19.8007 28.7624 19.7793 28.7737 19.7584C28.9444 19.4437 29.1025 19.1223 29.248 18.7942C29.2559 18.7762 29.2648 18.7587 29.2728 18.7407C29.4147 18.416 29.541 18.0843 29.6565 17.7484C29.6663 17.7199 29.6795 17.6928 29.6891 17.6642C30.313 18.3567 30.7228 19.2151 30.8688 20.1357C31.0148 21.0562 30.8908 21.9994 30.5118 22.8509C30.1328 23.7024 29.5151 24.4258 28.7334 24.9335C27.9517 25.4411 27.0396 25.7112 26.1075 25.7111Z" fill="#E3010F"/>
</svg>
